<?xml version="1.0" encoding="UTF-8" standalone="no"?>
<svg
   width="16"
   height="16"
   fill="currentColor"
   class="bi bi-arrow-up-circle"
   viewBox="0 0 16 16"
   version="1.1"
   id="svg4"
   sodipodi:docname="arrow-up-circle.svg"
   inkscape:version="1.1.2 (b8e25be833, 2022-02-05)"
   xmlns:inkscape="http://www.inkscape.org/namespaces/inkscape"
   xmlns:sodipodi="http://sodipodi.sourceforge.net/DTD/sodipodi-0.dtd"
   xmlns="http://www.w3.org/2000/svg"
   xmlns:svg="http://www.w3.org/2000/svg">
  <defs
     id="defs8" />
  <sodipodi:namedview
     id="namedview6"
     pagecolor="#ffffff"
     bordercolor="#666666"
     borderopacity="1.0"
     inkscape:pageshadow="2"
     inkscape:pageopacity="0.0"
     inkscape:pagecheckerboard="0"
     showgrid="false"
     inkscape:zoom="49.875"
     inkscape:cx="7.9899749"
     inkscape:cy="7.9398496"
     inkscape:window-width="1920"
     inkscape:window-height="991"
     inkscape:window-x="-9"
     inkscape:window-y="-9"
     inkscape:window-maximized="1"
     inkscape:current-layer="svg4" />
  <path
     fill-rule="evenodd"
     d="M1 8a7 7 0 1 0 14 0A7 7 0 0 0 1 8zm15 0A8 8 0 1 1 0 8a8 8 0 0 1 16 0zm-7.5 3.5a.5.5 0 0 1-1 0V5.707L5.354 7.854a.5.5 0 1 1-.708-.708l3-3a.5.5 0 0 1 .708 0l3 3a.5.5 0 0 1-.708.708L8.5 5.707V11.5z"
     id="path2" />
  <path
     style="fill:#ffffff;stroke-width:0.0200501"
     d="M 7.5288221,15.977819 C 6.6666592,15.90198 6.0947457,15.787683 5.4207082,15.556513 2.4513261,14.538124 0.38379591,11.928147 0.04620503,8.7719298 0.01438175,8.4744064 0.01438175,7.5255936 0.04620503,7.2280702 0.28961716,4.9523529 1.4187457,2.9537508 3.2251916,1.6011388 4.354975,0.75519114 5.667908,0.23575457 7.1278195,0.05713946 c 0.4075944,-0.04986777 1.3367666,-0.04986777 1.744361,0 C 10.728003,0.28419292 12.36153,1.070351 13.64559,2.3544104 c 1.306098,1.3060989 2.106687,2.9964275 2.308307,4.8736598 0.03766,0.3506035 0.03125,1.269679 -0.01138,1.6340852 -0.438965,3.7518386 -3.325398,6.6453316 -7.0603105,7.0775806 -0.2648591,0.03065 -1.1535657,0.05566 -1.3533834,0.03808 z M 8.8421053,14.959806 C 9.1904247,14.91338 9.4226701,14.869923 9.7164922,14.796192 12.223933,14.166989 14.17785,12.204112 14.80514,9.6842105 14.946821,9.1150601 14.997458,8.6716108 14.997458,8 c 0,-0.6840178 -0.05083,-1.1190452 -0.200289,-1.7142857 C 14.395453,4.6858685 13.45016,3.2933965 12.100251,2.3129961 11.132685,1.6102814 10.005857,1.176926 8.7619048,1.0291357 8.4715531,0.9946399 7.5284469,0.9946399 7.2380952,1.0291357 5.6503234,1.2177742 4.2569772,1.8716727 3.1323146,2.9559818 1.9499017,4.0959689 1.2277615,5.5662607 1.0291357,7.2380952 c -0.0344958,0.2903517 -0.0344958,1.2334579 0,1.5238096 0.1051963,0.885438 0.3482485,1.6913172 0.7394542,2.4517822 1.0730807,2.08596 3.1456597,3.507976 5.4695053,3.752678 0.1102757,0.01161 0.2365915,0.02472 0.2807018,0.02914 0.1753943,0.01754 1.1137734,-0.0078 1.3233083,-0.0357 z"
     id="path123" />
  <path
     style="fill:#ffffff;stroke-width:0.0200501"
     d="m 7.9163188,11.977264 c -0.1524172,-0.02687 -0.278251,-0.123992 -0.3601895,-0.278016 -0.035854,-0.0674 -0.037541,-0.187464 -0.042605,-3.0325813 -0.0029,-1.6293233 -0.011954,-2.962406 -0.020119,-2.962406 -0.00817,0 -0.5065449,0.4926494 -1.1075096,1.0947767 C 5.2266886,7.9604874 5.1933739,7.9893418 5.0110905,7.989779 4.7496715,7.9904062 4.5170216,7.7697859 4.5146814,7.5190376 4.5126572,7.3021502 4.441016,7.3832166 6.1425215,5.6770399 7.3480068,4.4682451 7.7403892,4.0863255 7.8088656,4.055128 7.9265219,4.0015242 8.0744437,4.0023235 8.1985772,4.0572337 8.2777893,4.0922729 8.5801241,4.3845409 9.8464818,5.6502683 11.538418,7.3413626 11.486125,7.2819595 11.484001,7.5104036 11.481572,7.771854 11.25584,7.9904194 10.988909,7.989779 10.806626,7.989342 10.773311,7.9604874 9.6141041,6.7990374 9.0131394,6.1969101 8.5147603,5.7042607 8.5065945,5.7042607 c -0.00817,0 -0.017219,1.3330827 -0.020119,2.962406 -0.00506,2.8451173 -0.00675,2.9651843 -0.042605,3.0325813 -0.047514,0.08931 -0.1472157,0.195567 -0.2185815,0.232944 -0.081317,0.04259 -0.2135914,0.06189 -0.3089704,0.04507 z"
     id="path162" />
</svg>
