<?xml version="1.0" encoding="UTF-8" standalone="no"?>
<svg
   width="16"
   height="16"
   fill="currentColor"
   class="bi bi-arrow-up-circle-fill"
   viewBox="0 0 16 16"
   version="1.1"
   id="svg4"
   sodipodi:docname="arrow-up-circle-fill.svg"
   inkscape:version="1.1.2 (b8e25be833, 2022-02-05)"
   xmlns:inkscape="http://www.inkscape.org/namespaces/inkscape"
   xmlns:sodipodi="http://sodipodi.sourceforge.net/DTD/sodipodi-0.dtd"
   xmlns="http://www.w3.org/2000/svg"
   xmlns:svg="http://www.w3.org/2000/svg">
  <defs
     id="defs8" />
  <sodipodi:namedview
     id="namedview6"
     pagecolor="#ffffff"
     bordercolor="#666666"
     borderopacity="1.0"
     inkscape:pageshadow="2"
     inkscape:pageopacity="0.0"
     inkscape:pagecheckerboard="0"
     showgrid="false"
     inkscape:zoom="49.875"
     inkscape:cx="7.9899749"
     inkscape:cy="7.9598997"
     inkscape:window-width="1920"
     inkscape:window-height="991"
     inkscape:window-x="-9"
     inkscape:window-y="-9"
     inkscape:window-maximized="1"
     inkscape:current-layer="svg4" />
  <path
     d="M16 8A8 8 0 1 0 0 8a8 8 0 0 0 16 0zm-7.5 3.5a.5.5 0 0 1-1 0V5.707L5.354 7.854a.5.5 0 1 1-.708-.708l3-3a.5.5 0 0 1 .708 0l3 3a.5.5 0 0 1-.708.708L8.5 5.707V11.5z"
     id="path2" />
  <path
     style="fill:#ffffff;stroke-width:0.0200501"
     d="m 7.9163188,11.977264 c -0.1524172,-0.02687 -0.278251,-0.123992 -0.3601895,-0.278016 -0.035854,-0.0674 -0.037541,-0.187464 -0.042605,-3.0325813 -0.0029,-1.6293233 -0.011954,-2.962406 -0.020119,-2.962406 -0.00817,0 -0.5065449,0.4926494 -1.1075096,1.0947767 C 5.2266886,7.9604874 5.1933739,7.9893418 5.0110905,7.989779 4.7496715,7.9904062 4.5170216,7.7697859 4.5146814,7.5190376 4.5126572,7.3021502 4.441016,7.3832166 6.1425215,5.6770399 7.3480068,4.4682451 7.7403892,4.0863255 7.8088656,4.055128 7.8612892,4.0312439 7.9405526,4.0143215 8,4.0143215 c 0.2175649,0 0.1717183,-0.04058 1.8483318,1.6359912 C 11.538637,7.3405742 11.486135,7.2808688 11.484001,7.5104036 11.481572,7.771854 11.25584,7.9904194 10.988909,7.989779 10.806626,7.989342 10.773311,7.9604874 9.6141041,6.7990374 9.0131394,6.1969101 8.5147603,5.7042607 8.5065945,5.7042607 c -0.00817,0 -0.017219,1.3330827 -0.020119,2.962406 -0.00506,2.8451173 -0.00675,2.9651843 -0.042605,3.0325813 -0.047514,0.08931 -0.1472157,0.195567 -0.2185815,0.232944 -0.081317,0.04259 -0.2135914,0.06189 -0.3089704,0.04507 z"
     id="path47" />
  <path
     style="fill:#ffffff;stroke-width:0.0200501"
     d="M 7.5288221,15.977819 C 6.6785005,15.903022 6.1014713,15.788757 5.443609,15.5649 2.4601185,14.549682 0.38482837,11.937799 0.04620503,8.7719298 0.01438175,8.4744064 0.01438175,7.5255936 0.04620503,7.2280702 0.31867545,4.6806799 1.7084219,2.4771647 3.8689143,1.1669661 4.8500271,0.57198472 5.9323338,0.20340297 7.1278195,0.05713946 c 0.4075944,-0.04986777 1.3367666,-0.04986777 1.744361,0 C 10.728003,0.28419292 12.36153,1.070351 13.64559,2.3544104 c 1.306098,1.3060989 2.106687,2.9964275 2.308307,4.8736598 0.03766,0.3506035 0.03125,1.269679 -0.01138,1.6340852 -0.438965,3.7518386 -3.325398,6.6453316 -7.0603105,7.0775806 -0.2648591,0.03065 -1.1535657,0.05566 -1.3533834,0.03808 z M 8.197591,11.972433 c 0.094124,-0.03933 0.208581,-0.145623 0.2597305,-0.241211 l 0.043932,-0.0821 0.010025,-2.9524539 0.010025,-2.9524536 1.0827067,1.0841252 c 0.6162658,0.6170738 1.1172578,1.1027803 1.1629068,1.1274275 0.112866,0.060939 0.347583,0.061148 0.461153,4.11e-4 0.105171,-0.056245 0.200376,-0.1573126 0.242026,-0.2569313 0.04679,-0.1119102 0.04367,-0.3017862 -0.0068,-0.4124952 -0.05621,-0.1233392 -3.1452946,-3.2095774 -3.2601521,-3.2571451 -0.099735,-0.041304 -0.3065829,-0.041304 -0.4063174,0 -0.1149355,0.0476 -3.2039503,3.133815 -3.2601947,3.2572397 -0.051177,0.112305 -0.054567,0.3016648 -0.00738,0.4124006 0.042606,0.099992 0.1379274,0.2009169 0.2426668,0.2569313 0.1135706,0.060737 0.3482869,0.060528 0.4611529,-4.11e-4 C 5.278732,7.931121 5.7797235,7.4454145 6.39599,6.8283407 l 1.0827067,-1.0841252 0.010025,2.9524536 0.010025,2.9524539 0.043932,0.0821 c 0.049853,0.09316 0.1639234,0.200566 0.255262,0.240338 0.080987,0.03526 0.3161102,0.03578 0.3996503,8.72e-4 z"
     id="path86" />
</svg>
