<?xml version="1.0" encoding="UTF-8" standalone="no"?>
<svg
   width="16"
   height="16"
   fill="currentColor"
   class="bi bi-at"
   viewBox="0 0 16 16"
   version="1.1"
   id="svg4"
   sodipodi:docname="at.svg"
   inkscape:version="1.1.2 (b8e25be833, 2022-02-05)"
   xmlns:inkscape="http://www.inkscape.org/namespaces/inkscape"
   xmlns:sodipodi="http://sodipodi.sourceforge.net/DTD/sodipodi-0.dtd"
   xmlns="http://www.w3.org/2000/svg"
   xmlns:svg="http://www.w3.org/2000/svg">
  <defs
     id="defs8" />
  <sodipodi:namedview
     id="namedview6"
     pagecolor="#ffffff"
     bordercolor="#666666"
     borderopacity="1.0"
     inkscape:pageshadow="2"
     inkscape:pageopacity="0.0"
     inkscape:pagecheckerboard="0"
     showgrid="false"
     inkscape:zoom="49.875"
     inkscape:cx="7.9899749"
     inkscape:cy="7.9598997"
     inkscape:window-width="1920"
     inkscape:window-height="991"
     inkscape:window-x="-9"
     inkscape:window-y="-9"
     inkscape:window-maximized="1"
     inkscape:current-layer="svg4" />
  <path
     d="M13.106 7.222c0-2.967-2.249-5.032-5.482-5.032-3.35 0-5.646 2.318-5.646 5.702 0 3.493 2.235 5.708 5.762 5.708.862 0 1.689-.123 2.304-.335v-.862c-.43.199-1.354.328-2.29.328-2.926 0-4.813-1.88-4.813-4.798 0-2.844 1.921-4.881 4.594-4.881 2.735 0 4.608 1.688 4.608 4.156 0 1.682-.554 2.769-1.416 2.769-.492 0-.772-.28-.772-.76V5.206H8.923v.834h-.11c-.266-.595-.881-.964-1.6-.964-1.4 0-2.378 1.162-2.378 2.823 0 1.737.957 2.906 2.379 2.906.8 0 1.415-.39 1.709-1.087h.11c.081.67.703 1.148 1.503 1.148 1.572 0 2.57-1.415 2.57-3.643zm-7.177.704c0-1.197.54-1.907 1.456-1.907.93 0 1.524.738 1.524 1.907S8.308 9.84 7.371 9.84c-.895 0-1.442-.725-1.442-1.914z"
     id="path2" />
  <path
     style="fill:#ffffff;stroke-width:0.0200501"
     d="M 7.1578947,13.570298 C 6.0200892,13.472109 5.0743132,13.166514 4.2879178,12.642964 3.9729554,12.433275 3.7743187,12.269928 3.5144745,12.00693 3.12413,11.611848 2.8453611,11.217253 2.595951,10.706767 2.3128191,10.12726 2.1461151,9.5605827 2.0444595,8.8320802 2.0001425,8.5144884 1.9827377,7.6306272 2.0140062,7.2855884 2.2551318,4.6248367 3.9445865,2.7403613 6.4862155,2.2971336 6.8907208,2.226593 7.146017,2.206761 7.6390977,2.2075747 c 1.087993,0.0018 1.9957282,0.2084572 2.8492143,0.6486731 1.445385,0.7455094 2.362368,2.0630366 2.562507,3.6818292 0.08304,0.671688 0.04594,1.4140467 -0.102129,2.0433766 -0.233605,0.9928768 -0.733218,1.7139454 -1.416663,2.0446074 -0.694168,0.33585 -1.49036,0.297063 -2.0125459,-0.09804 C 9.2955036,10.358549 9.1126163,10.078203 9.0659926,9.8328696 9.0439717,9.7169955 9.0419637,9.7142857 8.9781207,9.7142857 c -0.060564,0 -0.070314,0.00989 -0.1334959,0.135348 C 8.6178514,10.299945 8.2162534,10.611771 7.6977776,10.740117 7.4460463,10.802432 6.980251,10.802817 6.7108535,10.740933 6.3086937,10.648551 5.9933323,10.478332 5.6937788,10.191957 5.3031495,9.8185127 5.0414987,9.3118346 4.9221558,8.6977345 4.7683074,7.9060798 4.8517005,7.0838216 5.1516884,6.4345371 5.315459,6.0800768 5.6363709,5.6913438 5.936499,5.4838655 6.738336,4.9295559 7.8157033,4.9618631 8.4550175,5.5593883 8.5654859,5.6626358 8.7071787,5.8511044 8.763664,5.9699256 c 0.030697,0.064574 0.045126,0.075188 0.1022049,0.075188 h 0.066462 V 5.634086 5.2230584 h 0.5109227 0.5109227 l 0.00537,2.1303259 0.00537,2.1303258 0.055549,0.113113 c 0.06432,0.130966 0.200306,0.2646937 0.32548,0.3200643 0.04803,0.021244 0.153917,0.04707 0.235311,0.05739 0.943245,0.1195916 1.561487,-0.9541921 1.563841,-2.7161309 6.32e-4,-0.4730039 -0.0307,-0.7583868 -0.124692,-1.1355643 C 11.778838,5.1531733 11.203141,4.3506693 10.35589,3.802304 9.1209181,3.0029949 7.246652,2.8111123 5.8487112,3.3408704 5.277186,3.5574532 4.8092479,3.8565139 4.3638747,4.289834 3.5919988,5.0408205 3.1499452,5.965261 2.9732357,7.197995 2.9328912,7.4794398 2.939735,8.4593572 2.984158,8.7619048 3.1539763,9.9184684 3.585406,10.804688 4.31783,11.501461 c 0.6876497,0.654178 1.5746271,1.051349 2.6596136,1.190922 0.8580537,0.11038 2.2319,0.01033 2.8837384,-0.210004 l 0.173906,-0.05878 v 0.416621 0.416621 l -0.1754389,0.05353 c -0.3889971,0.118692 -0.9221656,0.211731 -1.4476168,0.252612 -0.2463549,0.01917 -1.0617069,0.02393 -1.2541376,0.0073 z M 7.7924329,9.7923184 C 8.3224792,9.6454352 8.7057917,9.1995631 8.8540814,8.5574011 8.912707,8.3035258 8.9287206,7.7501363 8.8853632,7.4763882 8.7632778,6.7055725 8.3819439,6.2204954 7.7660281,6.0525349 7.5902799,6.0046085 7.1857406,6.0049588 7.0075188,6.0531926 6.4658382,6.1997903 6.1395866,6.5864261 5.9822933,7.2681712 c -0.051863,0.2247848 -0.072724,0.8004457 -0.03878,1.0701211 0.1083434,0.8607533 0.5338991,1.3905578 1.2017399,1.496132 0.1621725,0.025637 0.4765278,0.00518 0.6471792,-0.042105 z"
     id="path47" />
</svg>
