<?xml version="1.0" encoding="UTF-8" standalone="no"?>
<svg
   width="16"
   height="16"
   fill="currentColor"
   class="bi bi-bag"
   viewBox="0 0 16 16"
   version="1.1"
   id="svg4"
   sodipodi:docname="bag.svg"
   inkscape:version="1.1.2 (b8e25be833, 2022-02-05)"
   xmlns:inkscape="http://www.inkscape.org/namespaces/inkscape"
   xmlns:sodipodi="http://sodipodi.sourceforge.net/DTD/sodipodi-0.dtd"
   xmlns="http://www.w3.org/2000/svg"
   xmlns:svg="http://www.w3.org/2000/svg">
  <defs
     id="defs8" />
  <sodipodi:namedview
     id="namedview6"
     pagecolor="#ffffff"
     bordercolor="#666666"
     borderopacity="1.0"
     inkscape:pageshadow="2"
     inkscape:pageopacity="0.0"
     inkscape:pagecheckerboard="0"
     showgrid="false"
     inkscape:zoom="49.875"
     inkscape:cx="7.9899749"
     inkscape:cy="7.9598997"
     inkscape:window-width="1920"
     inkscape:window-height="991"
     inkscape:window-x="-9"
     inkscape:window-y="-9"
     inkscape:window-maximized="1"
     inkscape:current-layer="svg4" />
  <path
     d="M8 1a2.5 2.5 0 0 1 2.5 2.5V4h-5v-.5A2.5 2.5 0 0 1 8 1zm3.5 3v-.5a3.5 3.5 0 1 0-7 0V4H1v10a2 2 0 0 0 2 2h10a2 2 0 0 0 2-2V4h-3.5zM2 5h12v9a1 1 0 0 1-1 1H3a1 1 0 0 1-1-1V5z"
     id="path2" />
  <path
     style="fill:#ffffff;stroke-width:0.0200501"
     d="M 2.6633411,15.960417 C 1.8466769,15.811493 1.2181368,15.196087 1.0520691,14.382815 1.0133306,14.193104 1.0125313,14.086206 1.0125313,9.0945949 V 4 H 2.7568922 4.5012531 L 4.5014336,3.7744361 C 4.502019,3.0249235 4.6086989,2.5041748 4.8721323,1.9649123 5.3594053,0.96742869 6.3053055,0.25916066 7.4185464,0.05821326 c 0.2794263,-0.0504383 0.8834809,-0.0504383 1.1629072,0 0.8809745,0.15902177 1.6650794,0.63614726 2.1943744,1.33527044 0.506945,0.6696032 0.72196,1.3779322 0.722743,2.3809524 L 11.498747,4 h 1.744361 1.744361 v 5.0905169 c 0,4.4590171 -0.0038,5.1103421 -0.03032,5.2503281 -0.14935,0.787311 -0.691018,1.367229 -1.489976,1.595195 l -0.153894,0.04391 -5.2531326,0.0033 c -4.2487976,0.0027 -5.280602,-0.0017 -5.3968093,-0.02287 z M 13.2523,14.976818 c 0.349411,-0.09101 0.631002,-0.3726 0.722012,-0.722012 0.02713,-0.104173 0.0307,-0.649693 0.0307,-4.6951088 V 4.9824561 H 8 1.9949875 v 4.5772411 c 0,5.0383618 -0.00888,4.6811228 0.1224307,4.9274798 0.078158,0.146639 0.2515412,0.319896 0.3985305,0.398241 0.2406274,0.128253 -0.1636235,0.119335 5.4748262,0.120781 4.5568661,0.0012 5.1571031,-0.0022 5.2615251,-0.02938 z M 10.510257,3.593985 C 10.493614,3.0201339 10.425703,2.7243623 10.220439,2.3317412 9.8697999,1.6610533 9.2204828,1.1807204 8.4611529,1.0303078 c -0.1854296,-0.036731 -0.7368762,-0.036731 -0.9223058,0 C 6.7795172,1.1807204 6.1302001,1.6610533 5.7795613,2.3317412 5.5742969,2.7243623 5.5063862,3.0201339 5.4897428,3.593985 L 5.4779671,4 H 8 10.522033 Z"
     id="path47" />
</svg>
