<?xml version="1.0" encoding="UTF-8" standalone="no"?>
<svg
   width="16"
   height="16"
   fill="currentColor"
   class="bi bi-book"
   viewBox="0 0 16 16"
   version="1.1"
   id="svg4"
   sodipodi:docname="book.svg"
   inkscape:version="1.1.2 (b8e25be833, 2022-02-05)"
   xmlns:inkscape="http://www.inkscape.org/namespaces/inkscape"
   xmlns:sodipodi="http://sodipodi.sourceforge.net/DTD/sodipodi-0.dtd"
   xmlns="http://www.w3.org/2000/svg"
   xmlns:svg="http://www.w3.org/2000/svg">
  <defs
     id="defs8" />
  <sodipodi:namedview
     id="namedview6"
     pagecolor="#ffffff"
     bordercolor="#666666"
     borderopacity="1.0"
     inkscape:pageshadow="2"
     inkscape:pageopacity="0.0"
     inkscape:pagecheckerboard="0"
     showgrid="false"
     inkscape:zoom="49.875"
     inkscape:cx="7.9899749"
     inkscape:cy="7.9598997"
     inkscape:window-width="1920"
     inkscape:window-height="991"
     inkscape:window-x="-9"
     inkscape:window-y="-9"
     inkscape:window-maximized="1"
     inkscape:current-layer="svg4" />
  <path
     d="M1 2.828c.885-.37 2.154-.769 3.388-.893 1.33-.134 2.458.063 3.112.752v9.746c-.935-.53-2.12-.603-3.213-.493-1.18.12-2.37.461-3.287.811V2.828zm7.5-.141c.654-.689 1.782-.886 3.112-.752 1.234.124 2.503.523 3.388.893v9.923c-.918-.35-2.107-.692-3.287-.81-1.094-.111-2.278-.039-3.213.492V2.687zM8 1.783C7.015.936 5.587.81 4.287.94c-1.514.153-3.042.672-3.994 1.105A.5.5 0 0 0 0 2.5v11a.5.5 0 0 0 .707.455c.882-.4 2.303-.881 3.68-1.02 1.409-.142 2.59.087 3.223.877a.5.5 0 0 0 .78 0c.633-.79 1.814-1.019 3.222-.877 1.378.139 2.8.62 3.681 1.02A.5.5 0 0 0 16 13.5v-11a.5.5 0 0 0-.293-.455c-.952-.433-2.48-.952-3.994-1.105C10.413.809 8.985.936 8 1.783z"
     id="path2" />
  <path
     style="fill:#ffffff;stroke-width:0.0200501"
     d="M 0.31077694,13.944337 C 0.19891942,13.892343 0.11963103,13.81863 0.06332666,13.714286 l -0.04327653,-0.0802 V 8 2.3659148 L 0.06332666,2.2857143 C 0.14794992,2.1288896 0.24609351,2.0676548 0.72180451,1.8748698 1.9985393,1.3574644 3.3442121,1.0237859 4.5305608,0.93043499 4.9445199,0.89786154 5.6952826,0.91735705 6.0364491,0.96953932 6.7816481,1.0835194 7.3755286,1.3154198 7.839599,1.6736394 c 0.066165,0.051074 0.1305041,0.099026 0.142975,0.1065611 0.012471,0.00753 0.057584,-0.01449 0.1002507,-0.048945 0.533546,-0.4308543 1.2536387,-0.6986187 2.1294003,-0.79181153 0.357987,-0.0380947 1.196143,-0.027106 1.597299,0.0209415 1.091715,0.13075763 2.246815,0.42984663 3.343691,0.86577913 0.601315,0.238981 0.69367,0.2931536 0.783458,0.45955 l 0.04328,0.080201 V 8 13.634085 l -0.04442,0.08306 c -0.126565,0.23665 -0.393991,0.327569 -0.647308,0.220069 -1.312956,-0.557173 -2.480801,-0.881112 -3.632264,-1.007525 -0.3767,-0.04136 -1.147525,-0.04734 -1.420368,-0.01102 -0.8284305,0.110268 -1.3953292,0.368458 -1.797656,0.81873 C 8.2783535,13.915995 8.1568533,13.984571 8,13.984571 c -0.1568533,0 -0.2783535,-0.06858 -0.437933,-0.247172 -0.6559279,-0.734095 -1.8260135,-0.993175 -3.4918916,-0.773175 -0.9631268,0.127193 -2.193253,0.473322 -3.1464235,0.885331 -0.33387513,0.144317 -0.46333969,0.164336 -0.61297496,0.09478 z M 1.2447932,12.67394 c 0.4724346,-0.173743 1.1121093,-0.363271 1.6248313,-0.481419 1.8531462,-0.427027 3.3767378,-0.371953 4.4444808,0.160659 0.096944,0.04836 0.1804022,0.08792 0.1854636,0.08792 0.00506,0 0.0092,-2.195958 0.0092,-4.8799068 V 2.6812895 L 7.3808106,2.5615879 C 7.0544642,2.2563068 6.5688569,2.0489348 5.9265768,1.9405771 5.7535218,1.9113814 5.5994087,1.9048965 5.0927318,1.90549 4.4289486,1.9062676 4.2273935,1.9247688 3.5631679,2.0458918 2.8293732,2.1797009 1.7425845,2.5019948 1.0676692,2.7859474 l -0.075188,0.031633 v 4.972162 c 0,2.7346896 0.002952,4.9721626 0.00656,4.9721626 0.003608,0 0.1141964,-0.03959 0.2457522,-0.08797 z M 15.002546,7.7869103 14.997494,2.8119157 14.746867,2.7131088 C 13.708787,2.3038566 12.459539,1.997762 11.481684,1.9130639 11.125868,1.8822444 10.309792,1.8996311 10.055138,1.9434568 9.4248958,2.051921 8.9416471,2.2599446 8.6191894,2.5615879 L 8.4912281,2.6812895 v 4.8799067 c 0,2.6839488 0.00414,4.8799068 0.0092,4.8799068 0.00506,0 0.08852,-0.03956 0.1854636,-0.08792 1.1738691,-0.58555 2.9289423,-0.592603 4.9983163,-0.02009 0.327274,0.09054 1.087441,0.336952 1.223057,0.396454 0.0386,0.01693 0.07696,0.03114 0.08525,0.03157 0.0083,4.31e-4 0.0128,-2.237963 0.01003,-4.9742097 z"
     id="path47" />
</svg>
