<?xml version="1.0" encoding="UTF-8" standalone="no"?>
<svg
   width="16"
   height="16"
   fill="currentColor"
   class="bi bi-brightness-high"
   viewBox="0 0 16 16"
   version="1.1"
   id="svg4"
   sodipodi:docname="brightness-high.svg"
   inkscape:version="1.1.2 (b8e25be833, 2022-02-05)"
   xmlns:inkscape="http://www.inkscape.org/namespaces/inkscape"
   xmlns:sodipodi="http://sodipodi.sourceforge.net/DTD/sodipodi-0.dtd"
   xmlns="http://www.w3.org/2000/svg"
   xmlns:svg="http://www.w3.org/2000/svg">
  <defs
     id="defs8" />
  <sodipodi:namedview
     id="namedview6"
     pagecolor="#ffffff"
     bordercolor="#666666"
     borderopacity="1.0"
     inkscape:pageshadow="2"
     inkscape:pageopacity="0.0"
     inkscape:pagecheckerboard="0"
     showgrid="false"
     inkscape:zoom="49.875"
     inkscape:cx="7.9899749"
     inkscape:cy="7.9598997"
     inkscape:window-width="1920"
     inkscape:window-height="991"
     inkscape:window-x="-9"
     inkscape:window-y="-9"
     inkscape:window-maximized="1"
     inkscape:current-layer="svg4" />
  <path
     d="M8 11a3 3 0 1 1 0-6 3 3 0 0 1 0 6zm0 1a4 4 0 1 0 0-8 4 4 0 0 0 0 8zM8 0a.5.5 0 0 1 .5.5v2a.5.5 0 0 1-1 0v-2A.5.5 0 0 1 8 0zm0 13a.5.5 0 0 1 .5.5v2a.5.5 0 0 1-1 0v-2A.5.5 0 0 1 8 13zm8-5a.5.5 0 0 1-.5.5h-2a.5.5 0 0 1 0-1h2a.5.5 0 0 1 .5.5zM3 8a.5.5 0 0 1-.5.5h-2a.5.5 0 0 1 0-1h2A.5.5 0 0 1 3 8zm10.657-5.657a.5.5 0 0 1 0 .707l-1.414 1.415a.5.5 0 1 1-.707-.708l1.414-1.414a.5.5 0 0 1 .707 0zm-9.193 9.193a.5.5 0 0 1 0 .707L3.05 13.657a.5.5 0 0 1-.707-.707l1.414-1.414a.5.5 0 0 1 .707 0zm9.193 2.121a.5.5 0 0 1-.707 0l-1.414-1.414a.5.5 0 0 1 .707-.707l1.414 1.414a.5.5 0 0 1 0 .707zM4.464 4.465a.5.5 0 0 1-.707 0L2.343 3.05a.5.5 0 1 1 .707-.707l1.414 1.414a.5.5 0 0 1 0 .708z"
     id="path2" />
  <path
     style="fill:#ffffff;stroke-width:0.0200501"
     d="M 0.34582394,8.4628778 C 0.23465931,8.4228283 0.13831607,8.34154 0.075635,8.2349096 0.02918797,8.1558958 0.02005013,8.117278 0.02005013,8 c 0,-0.1178109 0.0090703,-0.1557817 0.05647845,-0.2364343 C 0.1408982,7.6540574 0.26160217,7.5582603 0.37301157,7.5282608 0.42168423,7.5151546 0.84154691,7.5097557 1.5378413,7.5132825 2.7444399,7.519394 2.6923918,7.5137513 2.8358456,7.654004 3.0826015,7.8952535 3.0146252,8.287973 2.6988988,8.4451858 2.6322825,8.4783568 2.5394214,8.4815498 1.5238095,8.4855918 0.63916624,8.4891126 0.40617319,8.48462 0.34582394,8.4628778 Z"
     id="path47" />
  <path
     style="fill:#ffffff;stroke-width:0.0200501"
     d="M 3.9575954,4.5750639 C 3.9177315,4.5601462 3.8590849,4.5290957 3.8272696,4.506063 3.7954543,4.4830302 3.429587,4.1229015 3.0142311,3.7057768 2.2768463,2.9652518 2.2582509,2.9446325 2.2256262,2.8313413 2.1176176,2.4562746 2.4552767,2.1173205 2.8295507,2.2251007 c 0.1156742,0.033311 0.1317981,0.047851 0.8862261,0.7991506 0.4226245,0.4208723 0.7906094,0.8026439 0.817744,0.8483812 0.178731,0.3012645 -0.033225,0.6950268 -0.3881495,0.7210882 -0.068682,0.00504 -0.1445999,-0.0025 -0.1877759,-0.018657 z"
     id="path86" />
  <path
     style="fill:#ffffff;stroke-width:0.0200501"
     d="M 7.8997494,2.9794917 C 7.7557039,2.942637 7.6220394,2.8339054 7.5548142,2.6988988 7.5214347,2.6318637 7.518797,2.5434885 7.518797,1.4921558 V 0.35774528 l 0.060735,-0.0986721 c 0.2000879,-0.32507142 0.6408596,-0.32506819 0.8409368,6.16e-6 l 0.060735,0.0986783 V 1.492162 c 0,1.0513267 -0.00264,1.1397017 -0.036017,1.2067368 C 8.3436771,2.9027561 8.0966061,3.0298586 7.8997494,2.9794917 Z"
     id="path125" />
  <path
     style="fill:#ffffff;stroke-width:0.0200501"
     d="m 11.734295,4.5741187 c -0.112179,-0.041854 -0.207887,-0.1229484 -0.270189,-0.2289335 -0.04645,-0.079014 -0.05558,-0.1176315 -0.05558,-0.2349095 0,-0.1164176 0.0092,-0.1557366 0.05374,-0.2305765 0.07644,-0.1283314 1.528183,-1.5688143 1.634684,-1.6220025 0.121508,-0.060683 0.297646,-0.057512 0.426287,0.00768 0.227912,0.1154917 0.325685,0.3967385 0.219665,0.6318712 -0.03026,0.067122 -0.231664,0.2818275 -0.786527,0.8384895 -0.410214,0.4115452 -0.784187,0.7710471 -0.83105,0.7988932 -0.104866,0.062311 -0.281935,0.080195 -0.391026,0.039493 z"
     id="path164" />
  <path
     style="fill:#ffffff;stroke-width:0.0200501"
     d="M 13.353383,8.4670366 C 13.288881,8.4444895 13.169081,8.3620965 13.127368,8.3115927 12.92348,8.0647381 13.006913,7.7013021 13.301101,7.5548142 c 0.06649,-0.033106 0.160317,-0.036463 1.161058,-0.041532 0.696294,-0.00353 1.116157,0.00187 1.164829,0.014978 0.11141,0.029999 0.232114,0.1257966 0.296483,0.2353049 0.04741,0.080653 0.05648,0.1186234 0.05648,0.2364343 0,0.117278 -0.0091,0.1558958 -0.05559,0.2349096 -0.03057,0.052007 -0.08533,0.1172438 -0.121678,0.14497 -0.145953,0.111324 -0.147849,0.1114824 -1.31398,0.1097656 -0.694314,-0.00102 -1.09648,-0.00903 -1.135324,-0.022609 z"
     id="path203" />
  <path
     style="fill:#ffffff;stroke-width:0.0200501"
     d="m 13.102757,13.743979 c -0.120678,-0.05585 -1.585973,-1.513993 -1.641325,-1.633313 -0.0605,-0.130426 -0.06881,-0.220542 -0.03201,-0.347145 0.08879,-0.305434 0.454657,-0.450562 0.719466,-0.285391 0.0339,0.02115 0.401032,0.379546 0.815851,0.796448 0.836891,0.841094 0.832702,0.835619 0.815999,1.066536 -0.01133,0.156598 -0.09189,0.28984 -0.224993,0.372134 -0.129802,0.08025 -0.318353,0.09304 -0.452991,0.03073 z"
     id="path242" />
  <path
     style="fill:#ffffff;stroke-width:0.0200501"
     d="M 7.8445708,15.96259 C 7.7323912,15.920735 7.6366835,15.839642 7.5743819,15.733656 l -0.055585,-0.09456 v -1.132832 c 0,-1.049814 0.00264,-1.138133 0.036017,-1.205165 0.1572128,-0.315726 0.5499323,-0.383702 0.7911818,-0.136947 0.1402527,0.143454 0.13461,0.09141 0.1407215,1.298005 0.00353,0.696294 -0.00187,1.116157 -0.014978,1.164829 -0.029578,0.109844 -0.1253834,0.231895 -0.2302845,0.293371 -0.1110199,0.06506 -0.2858347,0.08366 -0.3968839,0.04223 z"
     id="path281" />
  <path
     style="fill:#ffffff;stroke-width:0.0200501"
     d="m 2.5062657,13.737956 c -0.2546809,-0.123653 -0.3605226,-0.407183 -0.2412635,-0.6463 0.036949,-0.07408 0.2436597,-0.292572 0.8170426,-0.863593 0.7141398,-0.711199 0.7750903,-0.766859 0.8754645,-0.799475 0.2588616,-0.08411 0.5213378,0.04836 0.6135259,0.309646 0.039073,0.110745 0.038486,0.190354 -0.00231,0.313332 -0.0292,0.08802 -0.115139,0.181628 -0.7869674,0.857196 -0.4148035,0.417113 -0.7928931,0.781338 -0.8401992,0.809391 -0.1278279,0.0758 -0.3034967,0.08379 -0.4352921,0.0198 z"
     id="path320" />
  <path
     style="fill:#ffffff;stroke-width:0.0200501"
     d="M 7.7593985,11.976873 C 5.8826084,11.874671 4.3123736,10.425319 4.0514183,8.5543489 c -0.040679,-0.2916546 -0.040679,-0.8170432 0,-1.1086978 0.221113,-1.5853131 1.3974229,-2.9045138 2.947428,-3.3054632 0.4719369,-0.1220788 1.0974131,-0.1575674 1.5636126,-0.088717 1.7626521,0.260316 3.1395071,1.641267 3.3870731,3.3971508 0.03839,0.272252 0.03839,0.8305048 0,1.1027568 -0.204334,1.4492565 -1.195361,2.6787745 -2.5709933,3.1897035 -0.5108148,0.189724 -1.0427007,0.267181 -1.6191402,0.235791 z m 0.7518797,-1.012641 c 0.3705782,-0.05834 0.8513355,-0.250331 1.1726266,-0.46829 0.6749362,-0.457867 1.1484412,-1.1932607 1.2843392,-1.9946889 0.04523,-0.2667162 0.04523,-0.73579 0,-1.0025062 C 10.809078,6.5600994 10.206041,5.7413528 9.361582,5.3173722 8.2595469,4.7640695 6.9620872,4.925229 6.0203699,5.7323894 5.5462359,6.1387769 5.1810194,6.7630492 5.0523025,7.3871272 4.946453,7.9003338 4.9848215,8.4868319 5.1565138,8.980091 c 0.3083972,0.8860024 0.9773446,1.554981 1.8632608,1.863348 0.4703194,0.163708 0.9646216,0.20374 1.4915036,0.120793 z"
     id="path359" />
</svg>
