<?xml version="1.0" encoding="UTF-8" standalone="no"?>
<svg
   width="16"
   height="16"
   fill="currentColor"
   class="bi bi-calendar"
   viewBox="0 0 16 16"
   version="1.1"
   id="svg4"
   sodipodi:docname="calendar.svg"
   inkscape:version="1.1.2 (b8e25be833, 2022-02-05)"
   xmlns:inkscape="http://www.inkscape.org/namespaces/inkscape"
   xmlns:sodipodi="http://sodipodi.sourceforge.net/DTD/sodipodi-0.dtd"
   xmlns="http://www.w3.org/2000/svg"
   xmlns:svg="http://www.w3.org/2000/svg">
  <defs
     id="defs8" />
  <sodipodi:namedview
     id="namedview6"
     pagecolor="#ffffff"
     bordercolor="#666666"
     borderopacity="1.0"
     inkscape:pageshadow="2"
     inkscape:pageopacity="0.0"
     inkscape:pagecheckerboard="0"
     showgrid="false"
     inkscape:zoom="49.875"
     inkscape:cx="7.9899749"
     inkscape:cy="6.3558897"
     inkscape:window-width="1920"
     inkscape:window-height="991"
     inkscape:window-x="-9"
     inkscape:window-y="-9"
     inkscape:window-maximized="1"
     inkscape:current-layer="svg4" />
  <path
     d="M3.5 0a.5.5 0 0 1 .5.5V1h8V.5a.5.5 0 0 1 1 0V1h1a2 2 0 0 1 2 2v11a2 2 0 0 1-2 2H2a2 2 0 0 1-2-2V3a2 2 0 0 1 2-2h1V.5a.5.5 0 0 1 .5-.5zM1 4v10a1 1 0 0 0 1 1h12a1 1 0 0 0 1-1V4H1z"
     id="path2" />
  <path
     style="fill:#ffffff;stroke-width:0.0200501"
     d="M 1.6480855,15.958104 C 1.2541644,15.886908 0.90243834,15.698635 0.60190191,15.398098 0.37441712,15.170613 0.24410661,14.971418 0.13803394,14.689021 0.00111442,14.3245 0.01002506,14.755228 0.01002506,8.5012531 0.01002506,2.3644662 0.00426274,2.695679 0.11676541,2.3659148 0.34707627,1.6908351 0.9121378,1.1960377 1.6171846,1.0520692 1.784596,1.0178842 1.8924982,1.0125313 2.414177,1.0125313 H 3.0175439 V 0.7011104 c 0,-0.34640524 0.015531,-0.41133217 0.1263294,-0.52812714 0.035281,-0.03719 0.1092595,-0.08898159 0.1643974,-0.11509235 0.178107,-0.08434337 0.3545806,-0.05461683 0.5110809,0.08609028 0.1422213,0.12786916 0.1651619,0.20114358 0.1761955,0.56278573 l 0.00933,0.30576438 H 8 11.995124 l 0.0093,-0.30576438 c 0.01103,-0.36164215 0.03397,-0.43491657 0.176195,-0.56278573 0.156501,-0.14070711 0.332974,-0.17043365 0.511081,-0.08609028 0.05514,0.02611076 0.129117,0.07790232 0.164398,0.11509235 0.110799,0.11679497 0.126329,0.1817219 0.126329,0.52812714 v 0.3114209 h 0.603367 c 0.521679,0 0.629581,0.00535 0.796992,0.039538 0.705047,0.1439685 1.270109,0.6387659 1.50042,1.3138456 0.112502,0.3297642 0.10674,-0.00145 0.10674,6.1353383 0,6.2539748 0.0089,5.8232468 -0.128009,6.1877678 -0.106073,0.282397 -0.236383,0.481592 -0.463868,0.709077 -0.227485,0.227485 -0.42668,0.357795 -0.709077,0.463868 -0.36576,0.137385 0.122406,0.128199 -6.706685,0.12621 -5.2232491,-0.0015 -6.2019951,-0.0062 -6.3342505,-0.03007 z M 14.243748,14.976646 c 0.07065,-0.01665 0.181461,-0.05853 0.246241,-0.09306 0.138689,-0.07392 0.335417,-0.27566 0.407471,-0.417852 0.116011,-0.228936 0.10944,0.09481 0.109762,-5.4080929 L 15.007519,4 H 8 0.9924812 l 2.9634e-4,5.0576441 c 3.2241e-4,5.5005949 -0.006172,5.1793069 0.10930296,5.4071869 0.1154489,0.227827 0.3808096,0.440717 0.6306275,0.505931 0.1233068,0.03219 0.5333425,0.0345 6.2572669,0.0353 5.3951041,7.57e-4 6.1406271,-0.0028 6.2537731,-0.02942 z"
     id="path47" />
</svg>
