<?xml version="1.0" encoding="UTF-8" standalone="no"?>
<svg
   width="16"
   height="16"
   fill="currentColor"
   class="bi bi-chat"
   viewBox="0 0 16 16"
   version="1.1"
   id="svg4"
   sodipodi:docname="chat.svg"
   inkscape:version="1.1.2 (b8e25be833, 2022-02-05)"
   xmlns:inkscape="http://www.inkscape.org/namespaces/inkscape"
   xmlns:sodipodi="http://sodipodi.sourceforge.net/DTD/sodipodi-0.dtd"
   xmlns="http://www.w3.org/2000/svg"
   xmlns:svg="http://www.w3.org/2000/svg">
  <defs
     id="defs8" />
  <sodipodi:namedview
     id="namedview6"
     pagecolor="#ffffff"
     bordercolor="#666666"
     borderopacity="1.0"
     inkscape:pageshadow="2"
     inkscape:pageopacity="0.0"
     inkscape:pagecheckerboard="0"
     showgrid="false"
     inkscape:zoom="49.875"
     inkscape:cx="7.9899749"
     inkscape:cy="7.9598997"
     inkscape:window-width="1920"
     inkscape:window-height="991"
     inkscape:window-x="-9"
     inkscape:window-y="-9"
     inkscape:window-maximized="1"
     inkscape:current-layer="svg4" />
  <path
     d="M2.678 11.894a1 1 0 0 1 .287.801 10.97 10.97 0 0 1-.398 2c1.395-.323 2.247-.697 2.634-.893a1 1 0 0 1 .71-.074A8.06 8.06 0 0 0 8 14c3.996 0 7-2.807 7-6 0-3.192-3.004-6-7-6S1 4.808 1 8c0 1.468.617 2.83 1.678 3.894zm-.493 3.905a21.682 21.682 0 0 1-.713.129c-.2.032-.352-.176-.273-.362a9.68 9.68 0 0 0 .244-.637l.003-.01c.248-.72.45-1.548.524-2.319C.743 11.37 0 9.76 0 8c0-3.866 3.582-7 8-7s8 3.134 8 7-3.582 7-8 7a9.06 9.06 0 0 1-2.347-.306c-.52.263-1.639.742-3.468 1.105z"
     id="path2" />
  <path
     style="fill:#ffffff;stroke-width:0.0200501"
     d="M 1.3540778,15.903453 C 1.269691,15.874604 1.1929825,15.767721 1.1929825,15.67899 c 0,-0.03545 0.027551,-0.131107 0.061223,-0.212573 C 1.57944,14.67956 1.8866303,13.500888 1.9656314,12.736716 L 1.9796359,12.601251 1.8218982,12.428336 C 1.1652779,11.708537 0.69472243,10.952484 0.39072858,10.12884 -0.12985431,8.7183675 -0.11057632,7.129516 0.44404836,5.7343358 1.0917883,4.1049207 2.3524491,2.776855 4.0601504,1.9248888 4.9850157,1.4634766 5.9213287,1.1913619 7.037594,1.0595732 c 0.4258187,-0.050273 1.4991761,-0.050261 1.924812,2.23e-5 1.121786,0.1325233 2.048105,0.4020858 2.983491,0.8682086 2.234645,1.1135707 3.69489,3.0545809 3.997504,5.3136281 0.04779,0.3567348 0.04779,1.1604008 0,1.5171356 -0.266457,1.9891292 -1.427264,3.7326592 -3.265776,4.9051922 -0.327453,0.208837 -1.015473,0.558868 -1.379379,0.701762 -0.749975,0.29449 -1.4792509,0.473951 -2.33584,0.574809 C 8.58929,14.984262 7.4815842,14.991165 7.1378446,14.9517 6.6311388,14.893526 6.1812142,14.816103 5.8177157,14.724533 L 5.660494,14.684927 5.3365127,14.828883 c -0.9482019,0.42132 -2.063108,0.752349 -3.3617384,0.998143 -0.1708376,0.03233 -0.3512154,0.06484 -0.4008395,0.07223 -0.049624,0.0074 -0.1037594,0.01671 -0.1203007,0.02069 -0.016541,0.004 -0.061342,-0.0034 -0.099556,-0.0165 z M 2.857925,14.636395 c 0.8435046,-0.21242 1.6402689,-0.486184 2.2235756,-0.764009 0.2489906,-0.118593 0.4146163,-0.167357 0.5700226,-0.167829 0.053701,-1.6e-4 0.2322986,0.03134 0.3968834,0.07 0.7343282,0.172506 1.1653446,0.220572 1.9716435,0.219874 0.6844878,-5.94e-4 0.9124082,-0.01947 1.4736842,-0.122022 1.7545957,-0.3206 3.3067977,-1.22539 4.3135577,-2.514406 0.641137,-0.820886 1.01833,-1.7010711 1.164081,-2.7164 0.03405,-0.237208 0.03405,-1.046 0,-1.283208 C 14.79082,6.1006318 14.244749,5.0240866 13.313283,4.0895719 12.193377,2.9660004 10.745612,2.2795041 9.013104,2.0505272 8.7283617,2.0128943 8.5857277,2.0067037 8,2.0065571 7.2643431,2.0063726 6.9573331,2.0333187 6.39599,2.1473392 3.8922813,2.6558946 1.9320989,4.2774883 1.2424915,6.4106568 0.99249648,7.1839689 0.927527,8.0704702 1.062738,8.8633732 c 0.1872501,1.09807 0.6851749,2.0588248 1.5420516,2.9754158 0.2835729,0.303335 0.3723045,0.524166 0.3462696,0.86178 -0.038104,0.494127 -0.1947051,1.28876 -0.3864773,1.961085 -0.00708,0.02481 -0.00685,0.04511 5.152e-4,0.04511 0.00736,0 0.1391333,-0.03167 0.2928275,-0.07037 z"
     id="path47" />
</svg>
