<?xml version="1.0" encoding="UTF-8" standalone="no"?>
<svg
   width="16"
   height="16"
   fill="currentColor"
   class="bi bi-check-square"
   viewBox="0 0 16 16"
   version="1.1"
   id="svg6"
   sodipodi:docname="check-square.svg"
   inkscape:version="1.1.2 (b8e25be833, 2022-02-05)"
   xmlns:inkscape="http://www.inkscape.org/namespaces/inkscape"
   xmlns:sodipodi="http://sodipodi.sourceforge.net/DTD/sodipodi-0.dtd"
   xmlns="http://www.w3.org/2000/svg"
   xmlns:svg="http://www.w3.org/2000/svg">
  <defs
     id="defs10" />
  <sodipodi:namedview
     id="namedview8"
     pagecolor="#ffffff"
     bordercolor="#666666"
     borderopacity="1.0"
     inkscape:pageshadow="2"
     inkscape:pageopacity="0.0"
     inkscape:pagecheckerboard="0"
     showgrid="false"
     inkscape:zoom="49.875"
     inkscape:cx="7.9899749"
     inkscape:cy="7.9598997"
     inkscape:window-width="1920"
     inkscape:window-height="991"
     inkscape:window-x="-9"
     inkscape:window-y="-9"
     inkscape:window-maximized="1"
     inkscape:current-layer="svg6" />
  <path
     d="M14 1a1 1 0 0 1 1 1v12a1 1 0 0 1-1 1H2a1 1 0 0 1-1-1V2a1 1 0 0 1 1-1h12zM2 0a2 2 0 0 0-2 2v12a2 2 0 0 0 2 2h12a2 2 0 0 0 2-2V2a2 2 0 0 0-2-2H2z"
     id="path2" />
  <path
     d="M10.97 4.97a.75.75 0 0 1 1.071 1.05l-3.992 4.99a.75.75 0 0 1-1.08.02L4.324 8.384a.75.75 0 1 1 1.06-1.06l2.094 2.093 3.473-4.425a.235.235 0 0 1 .02-.022z"
     id="path4" />
  <path
     style="fill:#ffffff;stroke-width:0.0200501"
     d="M 1.6480855,15.958104 C 1.2541644,15.886908 0.90243834,15.698635 0.60190191,15.398098 0.37429746,15.170494 0.24410601,14.971417 0.13783296,14.688486 3.763609e-5,14.321633 0.00902993,14.816425 0.01481748,7.919695 L 0.02005013,1.6842105 0.06396025,1.5303171 C 0.17359934,1.1460611 0.33758129,0.86077572 0.59917851,0.59917851 0.86077572,0.33758129 1.1460611,0.17359933 1.5303171,0.06396025 L 1.6842105,0.02005013 7.919695,0.01481748 c 6.89673,-0.00578755 6.401938,-0.01477984431 6.768791,0.12301548 0.282931,0.10627305 0.482008,0.2364645 0.709612,0.46406895 0.227485,0.22748482 0.357795,0.42667989 0.463868,0.70907699 C 15.999252,1.6764748 15.989975,1.1917172 15.989975,8 c 0,6.808283 0.0093,6.323525 -0.128009,6.689021 -0.106073,0.282397 -0.236383,0.481592 -0.463868,0.709077 -0.227485,0.227485 -0.42668,0.357795 -0.709077,0.463868 -0.36576,0.137385 0.122406,0.128199 -6.706685,0.12621 -5.2232491,-0.0015 -6.2019951,-0.0062 -6.3342505,-0.03007 z M 14.243748,14.976646 c 0.07065,-0.01665 0.181461,-0.05853 0.246241,-0.09306 0.138689,-0.07392 0.335417,-0.27566 0.407471,-0.417852 0.116611,-0.23012 0.109466,0.191896 0.109466,-6.465737 0,-6.6576329 0.0071,-6.235617 -0.109466,-6.4657367 C 14.825406,1.3920713 14.628678,1.1903316 14.489989,1.1164108 14.240934,0.98366596 14.735981,0.99307392 8,0.99307392 c -6.6576329,0 -6.235617,-0.007145 -6.4657367,0.10946578 C 1.3920713,1.1745938 1.1903316,1.3713215 1.1164108,1.5100111 0.98366596,1.759066 0.99307392,1.2640186 0.99307392,8 c 0,6.654936 -0.007068,6.235769 0.10900668,6.464831 0.1154488,0.227827 0.3808096,0.440717 0.6306274,0.505931 0.1233068,0.03219 0.5333425,0.0345 6.2572669,0.0353 5.3951041,7.57e-4 6.1406271,-0.0028 6.2537731,-0.02942 z"
     id="path49" />
  <path
     style="fill:#ffffff;stroke-width:0.0200501"
     d="M 7.2939557,11.210194 C 7.2474859,11.195019 7.1707942,11.159621 7.1235296,11.131532 7.0762651,11.103443 6.4006564,10.441493 5.6221772,9.6605315 4.0119983,8.0452184 4.1108321,8.1649333 4.1105844,7.8295739 4.1104613,7.6627561 4.1172131,7.6253057 4.1649449,7.5280555 4.3104597,7.2315797 4.6438631,7.0536423 4.9498824,7.1091342 5.1937822,7.1533618 5.1965327,7.1557215 6.3768423,8.3333821 L 7.4805015,9.4345642 9.2126039,7.2273399 C 10.16526,6.0133667 10.972373,4.9924512 11.006188,4.9586389 c 0.03382,-0.033812 0.120128,-0.089654 0.191807,-0.124093 0.114773,-0.055144 0.150664,-0.062572 0.300752,-0.062251 0.148553,3.183e-4 0.187153,0.00832 0.300752,0.062325 0.164912,0.078403 0.288509,0.2020637 0.368198,0.3683874 0.05474,0.1142551 0.06247,0.1514327 0.06266,0.3014916 2.01e-4,0.1504948 -0.007,0.1856048 -0.05993,0.2907268 -0.07059,0.1403015 -4.1186476,5.2084803 -4.2247851,5.2894353 -0.1744523,0.133062 -0.4601249,0.18809 -0.6516852,0.125533 z"
     id="path88" />
</svg>
