<?xml version="1.0" encoding="UTF-8" standalone="no"?>
<svg
   width="16"
   height="16"
   fill="currentColor"
   class="bi bi-cup-fill"
   viewBox="0 0 16 16"
   version="1.1"
   id="svg4"
   sodipodi:docname="cup-fill.svg"
   inkscape:version="1.1.2 (b8e25be833, 2022-02-05)"
   xmlns:inkscape="http://www.inkscape.org/namespaces/inkscape"
   xmlns:sodipodi="http://sodipodi.sourceforge.net/DTD/sodipodi-0.dtd"
   xmlns="http://www.w3.org/2000/svg"
   xmlns:svg="http://www.w3.org/2000/svg">
  <defs
     id="defs8" />
  <sodipodi:namedview
     id="namedview6"
     pagecolor="#ffffff"
     bordercolor="#666666"
     borderopacity="1.0"
     inkscape:pageshadow="2"
     inkscape:pageopacity="0.0"
     inkscape:pagecheckerboard="0"
     showgrid="false"
     inkscape:zoom="49.875"
     inkscape:cx="7.9899749"
     inkscape:cy="7.9598997"
     inkscape:window-width="1920"
     inkscape:window-height="991"
     inkscape:window-x="-9"
     inkscape:window-y="-9"
     inkscape:window-maximized="1"
     inkscape:current-layer="svg4" />
  <path
     d="M1 2a1 1 0 0 1 1-1h11a1 1 0 0 1 1 1v1h.5A1.5 1.5 0 0 1 16 4.5v7a1.5 1.5 0 0 1-1.5 1.5h-.55a2.5 2.5 0 0 1-2.45 2h-8A2.5 2.5 0 0 1 1 12.5V2zm13 10h.5a.5.5 0 0 0 .5-.5v-7a.5.5 0 0 0-.5-.5H14v8z"
     id="path2" />
  <path
     style="fill:#ffffff;stroke-width:0.0200501"
     d="M 3.1505704,14.965585 C 2.78109,14.911067 2.3184201,14.720902 2.0250627,14.502983 1.6308284,14.210128 1.2962603,13.752113 1.1429397,13.295378 1.0139499,12.911125 1.0249266,13.43042 1.0180811,7.3884712 1.0136598,3.4861133 1.0181707,1.8743342 1.0337237,1.7992465 1.0881018,1.5367177 1.2929844,1.2628216 1.5291402,1.1369519 1.7811274,1.0026441 1.3067466,1.0125313 7.4987469,1.0125313 c 6.1782211,0 5.7074121,-0.00968 5.9698751,0.1228058 0.151169,0.07631 0.325533,0.251109 0.402781,0.4037871 0.104081,0.2057123 0.113063,0.2770687 0.113321,0.9001964 l 2.38e-4,0.5746589 0.406015,0.00757 c 0.381176,0.00711 0.415828,0.010965 0.566416,0.063091 0.236622,0.081906 0.419535,0.1980116 0.601967,0.3821053 0.17855,0.180177 0.292183,0.3728561 0.373612,0.6335065 l 0.04698,0.150376 V 8 11.749373 l -0.04698,0.150376 c -0.153087,0.490027 -0.499472,0.850655 -0.975579,1.015691 -0.151954,0.05267 -0.182819,0.05599 -0.586156,0.06303 l -0.425755,0.0074 -0.02146,0.08349 c -0.147877,0.575441 -0.470969,1.070466 -0.9186,1.407433 -0.285121,0.214633 -0.61835,0.369612 -0.998925,0.464585 -0.126504,0.03157 -0.461284,0.03442 -4.4375787,0.03784 -2.3654135,0.002 -4.3536718,-0.0041 -4.4183519,-0.01366 z M 14.702398,11.968909 c 0.104018,-0.04339 0.201382,-0.14165 0.257255,-0.259636 l 0.04747,-0.10025 V 8 4.3909774 L 14.959653,4.2907268 C 14.933542,4.235589 14.881751,4.1616102 14.844561,4.1263294 14.727078,4.0148782 14.663698,4 14.306408,4 h -0.321446 v 4 4 h 0.321446 c 0.244985,0 0.339178,-0.0074 0.39599,-0.03109 z"
     id="path47" />
</svg>
