<?xml version="1.0" encoding="UTF-8" standalone="no"?>
<svg
   width="16"
   height="16"
   fill="currentColor"
   class="bi bi-house-door"
   viewBox="0 0 16 16"
   version="1.1"
   id="svg4"
   sodipodi:docname="house-door.svg"
   inkscape:version="1.1.2 (b8e25be833, 2022-02-05)"
   xmlns:inkscape="http://www.inkscape.org/namespaces/inkscape"
   xmlns:sodipodi="http://sodipodi.sourceforge.net/DTD/sodipodi-0.dtd"
   xmlns="http://www.w3.org/2000/svg"
   xmlns:svg="http://www.w3.org/2000/svg">
  <defs
     id="defs8" />
  <sodipodi:namedview
     id="namedview6"
     pagecolor="#ffffff"
     bordercolor="#666666"
     borderopacity="1.0"
     inkscape:pageshadow="2"
     inkscape:pageopacity="0.0"
     inkscape:pagecheckerboard="0"
     showgrid="false"
     inkscape:zoom="49.875"
     inkscape:cx="7.9899749"
     inkscape:cy="7.9598997"
     inkscape:window-width="1920"
     inkscape:window-height="991"
     inkscape:window-x="-9"
     inkscape:window-y="-9"
     inkscape:window-maximized="1"
     inkscape:current-layer="svg4" />
  <path
     d="M8.354 1.146a.5.5 0 0 0-.708 0l-6 6A.5.5 0 0 0 1.5 7.5v7a.5.5 0 0 0 .5.5h4.5a.5.5 0 0 0 .5-.5v-4h2v4a.5.5 0 0 0 .5.5H14a.5.5 0 0 0 .5-.5v-7a.5.5 0 0 0-.146-.354L13 5.793V2.5a.5.5 0 0 0-.5-.5h-1a.5.5 0 0 0-.5.5v1.293L8.354 1.146zM2.5 14V7.707l5.5-5.5 5.5 5.5V14H10v-4a.5.5 0 0 0-.5-.5h-3a.5.5 0 0 0-.5.5v4H2.5z"
     id="path2" />
  <path
     style="fill:#ffffff;stroke-width:0.0200501"
     d="M 1.8033963,14.939876 C 1.6848408,14.88467 1.5700123,14.75946 1.5370538,14.649455 1.5197637,14.591746 1.5138976,13.650177 1.5142248,10.985142 1.5146611,7.4315543 1.5150381,7.3976646 1.5551241,7.3082707 1.5868436,7.2375346 2.2548029,6.5582145 4.6474155,4.1633855 7.9360754,0.87167922 7.7857698,1.0129231 8,1.0129231 c 0.2065628,0 0.1950167,-0.010121 1.6440541,1.4411773 0.7388159,0.7399692 1.3500949,1.3453983 1.3583959,1.3453983 0.0083,0 0.01509,-0.3185293 0.01509,-0.7078428 V 2.3838133 l 0.05111,-0.1025552 c 0.02811,-0.056405 0.08225,-0.1263079 0.120309,-0.155339 0.142015,-0.1083204 0.160874,-0.1108815 0.816486,-0.1108815 h 0.608236 l 0.102556,0.051105 c 0.0564,0.028108 0.126308,0.082247 0.155339,0.1203086 0.116054,0.1521551 0.110881,0.063132 0.110881,1.90825 V 5.794701 l 0.703814,0.7016471 c 0.543081,0.5414089 0.714746,0.7245415 0.751684,0.8018975 l 0.04787,0.1002506 2e-4,3.5866458 c 1.41e-4,2.664413 -0.0058,3.606617 -0.02307,3.664313 -0.03296,0.110005 -0.147787,0.235215 -0.266343,0.290421 l -0.101365,0.0472 H 11.749378 9.4035134 L 9.3032628,14.939683 C 9.1827735,14.882722 9.1091056,14.807882 9.0542584,14.686717 9.0140337,14.597854 9.0134099,14.565522 9.0129762,12.546366 L 9.0125313,10.496241 H 8 6.9874687 l -2.005e-4,2.050125 -2.005e-4,2.050125 -0.047394,0.100251 c -0.056961,0.120489 -0.1318015,0.194157 -0.2529666,0.249004 -0.089112,0.04034 -0.1191888,0.04085 -2.4360903,0.04109 l -2.3458646,2.45e-4 -0.1013656,-0.0472 z m 4.2016162,-2.956287 c 0,-2.2175361 -0.00388,-2.1431549 0.1196933,-2.2925568 0.033382,-0.040358 0.1075933,-0.096749 0.1649136,-0.1253133 l 0.104219,-0.051934 1.6050857,2.005e-4 1.6050859,2.005e-4 0.1016714,0.047343 c 0.055919,0.026039 0.1306145,0.082342 0.1659896,0.1251174 0.1277443,0.1544616 0.1233165,0.071985 0.1233165,2.2969437 v 2.021424 h 1.7543855 1.754386 V 10.852158 7.6993027 L 10.751907,4.9473957 8.0000545,2.1954886 5.2481476,4.947341 2.4962406,7.6991934 v 3.1529096 3.15291 h 1.754386 1.7543859 z"
     id="path47" />
</svg>
