<?xml version="1.0" encoding="UTF-8" standalone="no"?>
<svg
   width="16"
   height="16"
   fill="currentColor"
   class="bi bi-moon"
   viewBox="0 0 16 16"
   version="1.1"
   id="svg4"
   sodipodi:docname="moon.svg"
   inkscape:version="1.1.2 (b8e25be833, 2022-02-05)"
   xmlns:inkscape="http://www.inkscape.org/namespaces/inkscape"
   xmlns:sodipodi="http://sodipodi.sourceforge.net/DTD/sodipodi-0.dtd"
   xmlns="http://www.w3.org/2000/svg"
   xmlns:svg="http://www.w3.org/2000/svg">
  <defs
     id="defs8" />
  <sodipodi:namedview
     id="namedview6"
     pagecolor="#ffffff"
     bordercolor="#666666"
     borderopacity="1.0"
     inkscape:pageshadow="2"
     inkscape:pageopacity="0.0"
     inkscape:pagecheckerboard="0"
     showgrid="false"
     inkscape:zoom="49.875"
     inkscape:cx="7.9899749"
     inkscape:cy="7.9598997"
     inkscape:window-width="1920"
     inkscape:window-height="991"
     inkscape:window-x="-9"
     inkscape:window-y="-9"
     inkscape:window-maximized="1"
     inkscape:current-layer="svg4" />
  <path
     d="M6 .278a.768.768 0 0 1 .08.858 7.208 7.208 0 0 0-.878 3.46c0 4.021 3.278 7.277 7.318 7.277.527 0 1.04-.055 1.533-.16a.787.787 0 0 1 .81.316.733.733 0 0 1-.031.893A8.349 8.349 0 0 1 8.344 16C3.734 16 0 12.286 0 7.71 0 4.266 2.114 1.312 5.124.06A.752.752 0 0 1 6 .278zM4.858 1.311A7.269 7.269 0 0 0 1.025 7.71c0 4.02 3.279 7.276 7.319 7.276a7.316 7.316 0 0 0 5.205-2.162c-.337.042-.68.063-1.029.063-4.61 0-8.343-3.714-8.343-8.29 0-1.167.242-2.278.681-3.286z"
     id="path2" />
  <path
     style="fill:#ffffff;stroke-width:0.0200501"
     d="M 7.7297119,15.969599 C 5.6836124,15.799176 3.8656638,14.966285 2.4417239,13.546911 1.1021186,12.211602 0.28184184,10.510316 0.05729174,8.6015038 0.00782196,8.1809807 0.00782196,7.2375657 0.05729174,6.8170426 0.37458554,4.1198532 1.9273258,1.7948739 4.2898306,0.47949508 4.614076,0.29896401 5.0683142,0.08713713 5.2352838,0.03859773 5.4864982,-0.0344323 5.7715407,0.05288936 5.9619268,0.26120209 6.1004527,0.41277149 6.1535172,0.55361698 6.1545325,0.77242202 l 7.94e-4,0.17091825 -0.184729,0.38046023 c -0.4342637,0.8943886 -0.6574274,1.6689646 -0.7479366,2.595999 -0.033265,0.340709 -0.027668,1.0994414 0.010649,1.443609 0.1112607,0.9993741 0.4005227,1.9148634 0.8713475,2.757741 1.0634126,1.9037375 2.9030936,3.2272565 5.0532376,3.6354465 0.479831,0.09109 0.744236,0.112618 1.373433,0.111816 0.641536,-8.18e-4 0.847098,-0.01857 1.401229,-0.121014 0.240512,-0.04446 0.295018,-0.04855 0.400305,-0.03 0.257563,0.04537 0.474426,0.205861 0.585652,0.433418 0.05147,0.105295 0.05861,0.141796 0.05876,0.300315 1.41e-4,0.152544 -0.0079,0.197505 -0.0517,0.290727 -0.06844,0.145486 -0.320531,0.443533 -0.6794,0.803245 -0.637552,0.639052 -1.310188,1.125198 -2.135893,1.543712 -0.91179,0.462147 -1.888919,0.749663 -2.9273182,0.86135 -0.2687904,0.02891 -1.191361,0.04125 -1.4532455,0.01944 z M 9.283208,14.939091 c 1.620457,-0.230881 2.994759,-0.886917 4.140351,-1.976437 l 0.150376,-0.143015 -0.140351,0.01122 c -0.898132,0.07182 -1.430996,0.05919 -2.175439,-0.05155 C 7.8186496,12.267646 5.0274721,9.6152495 4.3509395,6.2155388 4.0368808,4.6373313 4.1761728,3.0773293 4.7659469,1.5676578 4.8211469,1.4263608 4.8628539,1.3072986 4.8586309,1.3030751 4.8461049,1.2905481 4.283152,1.6341591 4.0890942,1.7727788 2.4943917,2.9119114 1.4258292,4.6196439 1.114711,6.5263158 1.040959,6.9783028 1.023589,7.2096397 1.024385,7.7293233 c 0.0013,0.8501692 0.1061414,1.5025277 0.3673656,2.2859037 0.4870803,1.46069 1.4295182,2.722664 2.7224802,3.645545 0.9636048,0.687794 2.2025351,1.158183 3.3845167,1.285009 0.1102757,0.01183 0.2320802,0.02515 0.2706767,0.02959 0.1789551,0.02058 1.3039178,-0.0064 1.5137838,-0.03628 z"
     id="path47" />
</svg>
