<?xml version="1.0" encoding="UTF-8" standalone="no"?>
<svg
   width="16"
   height="16"
   fill="currentColor"
   class="bi bi-patch-check-fill"
   viewBox="0 0 16 16"
   version="1.1"
   id="svg4"
   sodipodi:docname="patch-check-fill.svg"
   inkscape:version="1.1.2 (b8e25be833, 2022-02-05)"
   xmlns:inkscape="http://www.inkscape.org/namespaces/inkscape"
   xmlns:sodipodi="http://sodipodi.sourceforge.net/DTD/sodipodi-0.dtd"
   xmlns="http://www.w3.org/2000/svg"
   xmlns:svg="http://www.w3.org/2000/svg">
  <defs
     id="defs8" />
  <sodipodi:namedview
     id="namedview6"
     pagecolor="#ffffff"
     bordercolor="#666666"
     borderopacity="1.0"
     inkscape:pageshadow="2"
     inkscape:pageopacity="0.0"
     inkscape:pagecheckerboard="0"
     showgrid="false"
     inkscape:zoom="49.875"
     inkscape:cx="7.9899749"
     inkscape:cy="7.9598997"
     inkscape:window-width="1920"
     inkscape:window-height="991"
     inkscape:window-x="-9"
     inkscape:window-y="-9"
     inkscape:window-maximized="1"
     inkscape:current-layer="svg4" />
  <path
     d="M10.067.87a2.89 2.89 0 0 0-4.134 0l-.622.638-.89-.011a2.89 2.89 0 0 0-2.924 2.924l.01.89-.636.622a2.89 2.89 0 0 0 0 4.134l.637.622-.011.89a2.89 2.89 0 0 0 2.924 2.924l.89-.01.622.636a2.89 2.89 0 0 0 4.134 0l.622-.637.89.011a2.89 2.89 0 0 0 2.924-2.924l-.01-.89.636-.622a2.89 2.89 0 0 0 0-4.134l-.637-.622.011-.89a2.89 2.89 0 0 0-2.924-2.924l-.89.01-.622-.636zm.287 5.984-3 3a.5.5 0 0 1-.708 0l-1.5-1.5a.5.5 0 1 1 .708-.708L7 8.793l2.646-2.647a.5.5 0 0 1 .708.708z"
     id="path2" />
  <path
     style="fill:#0000ff;stroke-width:0.0200501"
     d="M 7.6526845,15.969179 C 7.3501462,15.931032 6.9751934,15.814795 6.6895581,15.670607 6.3981111,15.523485 6.2012936,15.366581 5.754386,14.925084 L 5.3132832,14.48932 4.641604,14.480635 C 3.9164834,14.471258 3.8654097,14.465216 3.4862795,14.343969 3.2545684,14.269866 2.9237917,14.102262 2.7117093,13.951496 2.494159,13.796842 2.1958743,13.496443 2.0380211,13.273032 1.8906574,13.064466 1.7198525,12.722174 1.6477076,12.490845 1.5348163,12.128864 1.5286217,12.074205 1.5193655,11.358396 L 1.5106799,10.686717 1.0747963,10.245614 C 0.73705205,9.9038258 0.60886202,9.759116 0.50544329,9.6028896 0.28784916,9.2741873 0.15324368,8.9534185 0.06573122,8.5550428 0.00452764,8.2764309 0.00452764,7.7235691 0.06573122,7.4449572 0.15324368,7.0465815 0.28784916,6.7258127 0.50544329,6.3971104 0.60904006,6.2406149 0.73681798,6.0964696 1.0763486,5.7530759 L 1.5137845,5.3106633 1.5138647,4.7204944 C 1.5139509,4.0825943 1.530394,3.91456 1.6246431,3.5883745 1.8857616,2.6846743 2.5809546,1.9580677 3.4654611,1.6643765 3.8544682,1.5352106 3.9062859,1.5288384 4.641604,1.5197408 l 0.6716792,-0.00831 0.4210526,-0.417001 c 0.231579,-0.2293505 0.475188,-0.45724947 0.5413534,-0.50644209 0.3444137,-0.2560644 0.7279587,-0.42860374 1.1591296,-0.5214391 0.2933673,-0.06316485 0.8369951,-0.06316485 1.1303624,0 0.3816964,0.08218303 0.7157301,0.22289135 1.0488539,0.44181907 0.1212666,0.079696 0.3005542,0.24041071 0.6215539,0.55716592 l 0.451128,0.4451624 0.671679,0.00868 c 0.737132,0.00952 0.786733,0.015698 1.182957,0.1472718 0.410686,0.1363755 0.780188,0.3675637 1.102313,0.6896886 0.322125,0.3221249 0.553313,0.6916275 0.689689,1.1023128 0.131571,0.3962164 0.137748,0.4458298 0.14728,1.1829574 l 0.0087,0.6716792 0.435884,0.4411028 c 0.337744,0.3417882 0.465934,0.486498 0.569353,0.6427244 0.217594,0.3287023 0.352199,0.6494711 0.439712,1.0478468 0.0612,0.2786119 0.0612,0.8314737 0,1.1100856 -0.08751,0.3983757 -0.222118,0.7191445 -0.439712,1.0478468 -0.103419,0.1562264 -0.231609,0.3009362 -0.569353,0.6427248 l -0.435884,0.441103 -0.0087,0.671679 c -0.007,0.543198 -0.01533,0.70037 -0.04344,0.821672 -0.06018,0.259711 -0.131565,0.464347 -0.241433,0.692112 -0.38455,0.797201 -1.100261,1.352889 -2.015692,1.565013 -0.121302,0.02811 -0.278474,0.03642 -0.821672,0.04344 l -0.671679,0.0087 -0.441103,0.435884 c -0.3417882,0.337744 -0.486498,0.465934 -0.6427244,0.569353 -0.3274326,0.216753 -0.6550277,0.354516 -1.0375902,0.436335 -0.2156018,0.04611 -0.6920411,0.0661 -0.9126149,0.03829 z M 7.2345666,9.9526009 C 7.3510071,9.8946272 10.374462,6.8751613 10.44314,6.7482609 10.55623,6.5392976 10.52397,6.3077145 10.358754,6.142499 10.198677,5.9824227 9.9722175,5.9456108 9.7693594,6.0466909 9.7117772,6.0753831 9.2492501,6.5233827 8.3406875,7.4304894 L 6.9971643,8.7718596 6.4158755,8.1891372 C 6.0961664,7.8686398 5.793985,7.5821895 5.7443609,7.5525809 5.6239507,7.480737 5.3979162,7.476093 5.2718153,7.5428724 5.0974171,7.6352285 4.9949444,7.804416 4.9949444,8 c 0,0.2107791 -0.010738,0.1974434 0.876994,1.0891176 0.453642,0.4556563 0.8518711,0.84288 0.8849538,0.860497 0.140947,0.075056 0.3305404,0.076242 0.4776744,0.00299 z"
     id="path121" />
  <path
     style="fill:#00ffff;stroke-width:0.0200501"
     d="M 7.4824956,15.92987 C 7.0510378,15.838933 6.6348948,15.659093 6.3358396,15.434334 6.2365915,15.359743 5.9690827,15.115482 5.7413756,14.891531 L 5.327363,14.484348 4.6185686,14.466649 C 3.8478346,14.447404 3.7780654,14.438162 3.421741,14.30812 3.2377847,14.240984 2.9428367,14.090828 2.7714021,13.977036 2.5582615,13.835562 2.2491539,13.533172 2.0589782,13.280096 1.9515332,13.137113 1.767479,12.785406 1.6923038,12.579421 1.5615125,12.221044 1.5524761,12.152816 1.5336886,11.381825 L 1.5164264,10.673424 1.1089516,10.259018 C 0.6496875,9.7919413 0.50505355,9.611527 0.35377917,9.3170268 0.22288188,9.0621967 0.16231312,8.9023184 0.09443695,8.6324628 0.04530253,8.437119 0.04126141,8.3890544 0.04126141,8 c 0,-0.3890544 0.0040411,-0.437119 0.05317554,-0.6324628 C 0.16222913,7.0980154 0.22287954,6.9378079 0.35307848,6.6843372 0.5060721,6.38649 0.64756525,6.209352 1.0988309,5.750715 L 1.5037594,5.3391719 1.5271806,4.6244732 C 1.546674,4.0296303 1.5573603,3.882875 1.5909026,3.7493734 1.8635519,2.6642045 2.6651862,1.8626148 3.7493734,1.5910225 3.8861847,1.5567508 4.0138366,1.5483706 4.6173548,1.5340404 L 5.3249351,1.5172392 5.7729666,1.077216 C 6.2499531,0.60875527 6.4357219,0.46406518 6.757181,0.31063914 7.1340269,0.13077805 7.4544056,0.0516143 7.8696742,0.03574859 8.3527864,0.01729086 8.713857,0.08132285 9.1292591,0.25912233 9.5223499,0.42737219 9.703281,0.5630808 10.248589,1.0986835 l 0.424536,0.4169792 0.70855,0.017247 c 0.790329,0.019238 0.88167,0.032915 1.284008,0.192257 0.865111,0.3426191 1.511414,1.0931865 1.743015,2.0242062 0.03378,0.1357837 0.04261,0.2691489 0.05756,0.8689759 l 0.01766,0.7085748 0.410803,0.4172788 c 0.481456,0.4890456 0.612807,0.6582067 0.78585,1.0120586 0.204294,0.4177623 0.289354,0.7833737 0.289354,1.243739 0,0.4603653 -0.08506,0.8259767 -0.289356,1.2437385 -0.173049,0.3538647 -0.304393,0.5230118 -0.785948,1.0121585 l -0.410902,0.417379 -0.01742,0.7185 c -0.01638,0.67567 -0.02041,0.729257 -0.06756,0.898951 -0.295501,1.063611 -1.019135,1.795275 -2.074244,2.097259 -0.213732,0.06117 -0.215853,0.06135 -0.93311,0.07891 l -0.718891,0.0176 -0.416988,0.410517 C 10.026163,15.12079 9.7637225,15.36098 9.6723056,15.428761 9.3209211,15.689297 8.7862131,15.90155 8.3609023,15.949326 8.0765305,15.981269 7.6852405,15.972603 7.4824956,15.92987 Z M 7.154074,9.9936042 C 7.2520822,9.9663884 7.3061969,9.9170725 8.2287114,9.0142657 9.1611108,8.1017851 10.422298,6.8116469 10.467666,6.723916 10.518596,6.6254276 10.52726,6.4493865 10.487123,6.328547 10.397607,6.059038 10.057457,5.9073943 9.8023292,6.0232555 9.712964,6.0638388 8.8215513,6.9228407 7.660566,8.0871463 L 7.00033,8.7492704 6.4185736,8.1768519 C 6.0986075,7.8620217 5.802471,7.5817043 5.7604922,7.553924 5.6558197,7.484655 5.442942,7.4682141 5.3096808,7.5191072 5.0520826,7.6174847 4.9115206,7.9420624 5.0215545,8.1844317 c 0.085371,0.1880459 1.6412257,1.7451699 1.8005664,1.8020359 0.091541,0.032669 0.2293363,0.035632 0.3319531,0.00714 z"
     id="path197" />
</svg>
