<?xml version="1.0" encoding="UTF-8" standalone="no"?>
<svg
   width="16"
   height="16"
   fill="currentColor"
   class="bi bi-person"
   viewBox="0 0 16 16"
   version="1.1"
   id="svg4"
   sodipodi:docname="person.svg"
   inkscape:version="1.1.2 (b8e25be833, 2022-02-05)"
   xmlns:inkscape="http://www.inkscape.org/namespaces/inkscape"
   xmlns:sodipodi="http://sodipodi.sourceforge.net/DTD/sodipodi-0.dtd"
   xmlns="http://www.w3.org/2000/svg"
   xmlns:svg="http://www.w3.org/2000/svg">
  <defs
     id="defs8" />
  <sodipodi:namedview
     id="namedview6"
     pagecolor="#ffffff"
     bordercolor="#666666"
     borderopacity="1.0"
     inkscape:pageshadow="2"
     inkscape:pageopacity="0.0"
     inkscape:pagecheckerboard="0"
     showgrid="false"
     inkscape:zoom="49.875"
     inkscape:cx="7.9899749"
     inkscape:cy="7.9598997"
     inkscape:window-width="1920"
     inkscape:window-height="991"
     inkscape:window-x="-9"
     inkscape:window-y="-9"
     inkscape:window-maximized="1"
     inkscape:current-layer="svg4" />
  <path
     d="M8 8a3 3 0 1 0 0-6 3 3 0 0 0 0 6zm2-3a2 2 0 1 1-4 0 2 2 0 0 1 4 0zm4 8c0 1-1 1-1 1H3s-1 0-1-1 1-4 6-4 6 3 6 4zm-1-.004c-.001-.246-.154-.986-.832-1.664C11.516 10.68 10.289 10 8 10c-2.29 0-3.516.68-4.168 1.332-.678.678-.83 1.418-.832 1.664h10z"
     id="path2" />
  <path
     style="fill:#ffffff;stroke-width:0.0200501"
     d="M 2.7525142,13.953826 C 2.5040407,13.893588 2.252253,13.718037 2.140276,13.526962 1.9170915,13.146127 1.9995164,12.457729 2.3555153,11.729323 3.0941105,10.218091 4.6514609,9.3054508 6.9072682,9.0619 7.3185766,9.017493 8.238237,9.001619 8.6917293,9.0311 c 2.4538177,0.1595183 4.1685647,1.093699 4.9527557,2.698223 0.355999,0.728406 0.438423,1.416804 0.215239,1.797639 -0.114239,0.194935 -0.364529,0.367245 -0.621423,0.427814 -0.182797,0.0431 -10.3078762,0.04218 -10.4857868,-9.5e-4 z M 12.995195,12.861877 c -0.02537,-0.272942 -0.214458,-0.746972 -0.419784,-1.052353 -0.710748,-1.057093 -2.011456,-1.660182 -3.8736566,-1.796066 -0.4094723,-0.029879 -1.4065983,-0.01272 -1.7740018,0.03053 -1.6814779,0.197936 -2.8427627,0.783206 -3.5031521,1.765536 -0.2241748,0.33346 -0.4271068,0.867564 -0.4271068,1.124118 v 0.06886 h 5.0053855 5.0053858 z"
     id="path84" />
  <path
     style="fill:#ffffff;stroke-width:0.0200501"
     d="M 7.7192982,7.9781744 C 7.2851328,7.915832 6.9865734,7.8294633 6.6853361,7.6790641 5.3510818,7.0129097 4.702649,5.4924339 5.1548147,4.0902256 5.4039702,3.3175708 5.9631941,2.6737075 6.6967419,2.3149255 7.8483834,1.7516516 9.2220792,1.9890046 10.125313,2.9073285 11.331151,4.1333121 11.261162,6.0973861 9.9708738,7.24128 9.5871445,7.5814721 9.0880249,7.82815 8.5734829,7.9319072 8.3884052,7.9692281 7.8573269,7.997994 7.7192982,7.9781744 Z M 8.5213033,6.940328 C 9.0975358,6.7799154 9.5522424,6.4032349 9.8076822,5.8746867 9.9438536,5.5929251 9.9992908,5.3491443 10.001461,5.0225564 10.00386,4.661588 9.9483194,4.409444 9.8009087,4.112087 9.6924062,3.8932155 9.5979741,3.7615859 9.4244846,3.5873863 9.1628686,3.3246995 8.8645931,3.1504969 8.5112782,3.0540441 8.364172,3.013885 8.2942121,3.0075188 8,3.0075188 c -0.2942121,0 -0.364172,0.00637 -0.5112782,0.046525 C 7.1354069,3.1504969 6.8371313,3.3246995 6.5755153,3.5873863 6.2876031,3.876477 6.110636,4.2106206 6.0224961,4.6315789 c -0.032454,0.1550032 -0.032454,0.5868516 0,0.7418547 0.1638788,0.7826895 0.7271044,1.3820265 1.4762508,1.5709006 0.2321032,0.058518 0.2526265,0.060455 0.5614035,0.053003 0.223304,-0.00539 0.3176004,-0.017047 0.4611529,-0.057009 z"
     id="path123" />
</svg>
